<?xml version="1.0" encoding="utf-8"?>
<!-- Generator: Adobe Illustrator 16.0.0, SVG Export Plug-In . SVG Version: 6.00 Build 0)  -->
<!DOCTYPE svg PUBLIC "-//W3C//DTD SVG 1.1//EN" "http://www.w3.org/Graphics/SVG/1.1/DTD/svg11.dtd">
<svg version="1.1" xmlns="http://www.w3.org/2000/svg" xmlns:xlink="http://www.w3.org/1999/xlink" x="0px" y="0px" width="200px"
	 height="200px" viewBox="0 0 200 200" enable-background="new 0 0 200 200" xml:space="preserve">
<g id="Layer_1">
	<g id="Layer_3">
		<path fill="#89DAF5" d="M100,200C44.86,200,0,155.141,0,100C0,44.86,44.86,0,100,0c55.143,0,100,44.86,100,100
			C200,155.141,155.143,200,100,200z"/>
	</g>
</g>
<g id="Layer_4">
	
		<rect x="31.696" y="76.88" fill="#FFFFFF" stroke="#0E76B7" stroke-width="3" stroke-linecap="round" stroke-linejoin="round" stroke-miterlimit="10" width="65.805" height="49.416"/>
	<g>
		<path fill="#0E76B7" d="M36.468,90.272c-0.407,0-0.737-0.33-0.737-0.737v-7.458c0-0.407,0.33-0.736,0.737-0.736
			s0.736,0.329,0.736,0.736v7.458C37.204,89.942,36.875,90.272,36.468,90.272z"/>
		<path fill="#0E76B7" d="M38.585,90.272c-0.204,0-0.369-0.165-0.369-0.368v-8.196c0-0.202,0.165-0.367,0.369-0.367
			c0.204,0,0.368,0.165,0.368,0.367v8.196C38.953,90.107,38.789,90.272,38.585,90.272z"/>
		<path fill="#0E76B7" d="M40.611,90.272c-0.408,0-0.737-0.33-0.737-0.737v-7.458c0-0.407,0.329-0.736,0.737-0.736
			c0.407,0,0.736,0.329,0.736,0.736v7.458C41.348,89.942,41.018,90.272,40.611,90.272z"/>
		<path fill="#0E76B7" d="M42.467,90.272c-0.203,0-0.367-0.165-0.367-0.368v-8.196c0-0.202,0.164-0.367,0.367-0.367
			c0.204,0,0.369,0.165,0.369,0.367v8.196C42.836,90.107,42.671,90.272,42.467,90.272z"/>
		<path fill="#0E76B7" d="M44.402,90.272c-0.408,0-0.737-0.33-0.737-0.737v-7.458c0-0.407,0.33-0.736,0.737-0.736
			c0.407,0,0.736,0.329,0.736,0.736v7.458C45.138,89.942,44.809,90.272,44.402,90.272z"/>
		<path fill="#0E76B7" d="M46.55,90.272c-0.407,0-0.736-0.33-0.736-0.737v-7.458c0-0.407,0.33-0.736,0.736-0.736
			c0.407,0,0.737,0.329,0.737,0.736v7.458C47.287,89.942,46.957,90.272,46.55,90.272z"/>
		<path fill="#0E76B7" d="M48.393,90.272c-0.204,0-0.369-0.165-0.369-0.368v-8.196c0-0.202,0.165-0.367,0.369-0.367
			c0.204,0,0.368,0.165,0.368,0.367v8.196C48.76,90.107,48.596,90.272,48.393,90.272z"/>
		<path fill="#0E76B7" d="M49.834,90.272c-0.203,0-0.367-0.165-0.367-0.368v-8.196c0-0.202,0.164-0.367,0.367-0.367
			c0.204,0,0.369,0.165,0.369,0.367v8.196C50.203,90.107,50.038,90.272,49.834,90.272z"/>
		<path fill="#0E76B7" d="M51.216,90.272c-0.204,0-0.369-0.165-0.369-0.368v-8.196c0-0.202,0.165-0.367,0.369-0.367
			c0.203,0,0.368,0.165,0.368,0.367v8.196C51.584,90.107,51.419,90.272,51.216,90.272z"/>
	</g>
	
		<rect x="102.497" y="76.88" fill="#FFFFFF" stroke="#0E76B7" stroke-width="3" stroke-linecap="round" stroke-linejoin="round" stroke-miterlimit="10" width="65.807" height="49.416"/>
	<g>
		<path fill="#0E76B7" d="M107.269,90.272c-0.405,0-0.736-0.33-0.736-0.737v-7.458c0-0.407,0.331-0.736,0.736-0.736
			c0.407,0,0.737,0.329,0.737,0.736v7.458C108.006,89.942,107.676,90.272,107.269,90.272z"/>
		<path fill="#0E76B7" d="M109.387,90.272c-0.204,0-0.368-0.165-0.368-0.368v-8.196c0-0.202,0.164-0.367,0.368-0.367
			c0.203,0,0.367,0.165,0.367,0.367v8.196C109.754,90.107,109.59,90.272,109.387,90.272z"/>
		<path fill="#0E76B7" d="M111.412,90.272c-0.407,0-0.736-0.33-0.736-0.737v-7.458c0-0.407,0.329-0.736,0.736-0.736
			s0.737,0.329,0.737,0.736v7.458C112.149,89.942,111.819,90.272,111.412,90.272z"/>
		<path fill="#0E76B7" d="M113.27,90.272c-0.205,0-0.369-0.165-0.369-0.368v-8.196c0-0.202,0.164-0.367,0.369-0.367
			c0.203,0,0.367,0.165,0.367,0.367v8.196C113.637,90.107,113.473,90.272,113.27,90.272z"/>
		<path fill="#0E76B7" d="M115.202,90.272c-0.406,0-0.735-0.33-0.735-0.737v-7.458c0-0.407,0.329-0.736,0.735-0.736
			c0.407,0,0.737,0.329,0.737,0.736v7.458C115.939,89.942,115.609,90.272,115.202,90.272z"/>
		<path fill="#0E76B7" d="M117.351,90.272c-0.406,0-0.735-0.33-0.735-0.737v-7.458c0-0.407,0.329-0.736,0.735-0.736
			c0.408,0,0.738,0.329,0.738,0.736v7.458C118.089,89.942,117.759,90.272,117.351,90.272z"/>
		<path fill="#0E76B7" d="M119.194,90.272c-0.204,0-0.368-0.165-0.368-0.368v-8.196c0-0.202,0.164-0.367,0.368-0.367
			c0.203,0,0.368,0.165,0.368,0.367v8.196C119.563,90.107,119.397,90.272,119.194,90.272z"/>
		<path fill="#0E76B7" d="M120.636,90.272c-0.203,0-0.368-0.165-0.368-0.368v-8.196c0-0.202,0.165-0.367,0.368-0.367
			c0.204,0,0.369,0.165,0.369,0.367v8.196C121.005,90.107,120.84,90.272,120.636,90.272z"/>
		<path fill="#0E76B7" d="M122.018,90.272c-0.204,0-0.368-0.165-0.368-0.368v-8.196c0-0.202,0.164-0.367,0.368-0.367
			c0.203,0,0.368,0.165,0.368,0.367v8.196C122.386,90.107,122.221,90.272,122.018,90.272z"/>
	</g>
	
		<rect x="64.599" y="27.464" fill="#FFFFFF" stroke="#0E76B7" stroke-width="3" stroke-linecap="round" stroke-linejoin="round" stroke-miterlimit="10" width="65.806" height="49.416"/>
	<g>
		<path fill="#0E76B7" d="M69.371,40.856c-0.407,0-0.736-0.33-0.736-0.737v-7.458c0-0.408,0.33-0.737,0.736-0.737
			c0.407,0,0.736,0.329,0.736,0.737v7.458C70.106,40.527,69.778,40.856,69.371,40.856z"/>
		<path fill="#0E76B7" d="M71.488,40.856c-0.203,0-0.368-0.165-0.368-0.368v-8.196c0-0.203,0.165-0.368,0.368-0.368
			c0.204,0,0.368,0.165,0.368,0.368v8.196C71.856,40.691,71.692,40.856,71.488,40.856z"/>
		<path fill="#0E76B7" d="M73.514,40.856c-0.408,0-0.737-0.33-0.737-0.737v-7.458c0-0.408,0.329-0.737,0.737-0.737
			c0.407,0,0.737,0.329,0.737,0.737v7.458C74.251,40.527,73.921,40.856,73.514,40.856z"/>
		<path fill="#0E76B7" d="M75.371,40.856c-0.204,0-0.368-0.165-0.368-0.368v-8.196c0-0.203,0.164-0.368,0.368-0.368
			s0.368,0.165,0.368,0.368v8.196C75.739,40.691,75.574,40.856,75.371,40.856z"/>
		<path fill="#0E76B7" d="M77.305,40.856c-0.407,0-0.737-0.33-0.737-0.737v-7.458c0-0.408,0.33-0.737,0.737-0.737
			c0.407,0,0.736,0.329,0.736,0.737v7.458C78.041,40.527,77.711,40.856,77.305,40.856z"/>
		<path fill="#0E76B7" d="M79.453,40.856c-0.407,0-0.736-0.33-0.736-0.737v-7.458c0-0.408,0.329-0.737,0.736-0.737
			c0.407,0,0.736,0.329,0.736,0.737v7.458C80.189,40.527,79.86,40.856,79.453,40.856z"/>
		<path fill="#0E76B7" d="M81.295,40.856c-0.204,0-0.369-0.165-0.369-0.368v-8.196c0-0.203,0.165-0.368,0.369-0.368
			c0.203,0,0.369,0.165,0.369,0.368v8.196C81.664,40.691,81.499,40.856,81.295,40.856z"/>
		<path fill="#0E76B7" d="M82.737,40.856c-0.204,0-0.368-0.165-0.368-0.368v-8.196c0-0.203,0.164-0.368,0.368-0.368
			c0.204,0,0.369,0.165,0.369,0.368v8.196C83.106,40.691,82.941,40.856,82.737,40.856z"/>
		<path fill="#0E76B7" d="M84.119,40.856c-0.204,0-0.368-0.165-0.368-0.368v-8.196c0-0.203,0.165-0.368,0.368-0.368
			c0.203,0,0.368,0.165,0.368,0.368v8.196C84.487,40.691,84.322,40.856,84.119,40.856z"/>
	</g>
	
		<rect x="67.506" y="93.998" fill="#0E76B7" stroke="#0E76B7" stroke-width="4" stroke-linecap="round" stroke-linejoin="round" stroke-miterlimit="10" width="66.374" height="78.54"/>
	<g>
		<rect x="76.158" y="94.498" fill="#FFFFFF" width="49.072" height="63.135"/>
		<path fill="#0E76B7" d="M124.729,94.998v62.135H76.658V94.998H124.729 M125.729,93.998H75.658v64.135h50.072V93.998
			L125.729,93.998z"/>
	</g>
	
		<line fill="#FFFFFF" stroke="#0E76B7" stroke-width="2" stroke-linecap="round" stroke-linejoin="round" stroke-miterlimit="10" x1="94.942" y1="107.328" x2="116.217" y2="107.328"/>
	
		<line fill="#FFFFFF" stroke="#0E76B7" stroke-width="2" stroke-linecap="round" stroke-linejoin="round" stroke-miterlimit="10" x1="94.942" y1="114.419" x2="116.217" y2="114.419"/>
	
		<line fill="#FFFFFF" stroke="#0E76B7" stroke-width="2" stroke-linecap="round" stroke-linejoin="round" stroke-miterlimit="10" x1="94.942" y1="122.078" x2="116.217" y2="122.078"/>
	
		<line fill="#FFFFFF" stroke="#0E76B7" stroke-width="2" stroke-linecap="round" stroke-linejoin="round" stroke-miterlimit="10" x1="94.942" y1="129.169" x2="116.217" y2="129.169"/>
	
		<line fill="#FFFFFF" stroke="#0E76B7" stroke-width="2" stroke-linecap="round" stroke-linejoin="round" stroke-miterlimit="10" x1="94.942" y1="136.687" x2="116.217" y2="136.687"/>
	
		<polyline fill="#FFFFFF" stroke="#0E76B7" stroke-width="1.5" stroke-linecap="round" stroke-linejoin="round" stroke-miterlimit="10" points="
		85.169,106.736 87.226,108.345 90.275,104.185 	"/>
	
		<polyline fill="#FFFFFF" stroke="#0E76B7" stroke-width="1.5" stroke-linecap="round" stroke-linejoin="round" stroke-miterlimit="10" points="
		85.169,114.891 87.226,116.5 90.275,112.34 	"/>
	
		<polyline fill="#FFFFFF" stroke="#0E76B7" stroke-width="1.5" stroke-linecap="round" stroke-linejoin="round" stroke-miterlimit="10" points="
		85.169,122.551 87.226,124.158 90.275,119.998 	"/>
	
		<path fill="#FFFFFF" stroke="#0E76B7" stroke-width="3" stroke-linecap="round" stroke-linejoin="round" stroke-miterlimit="10" d="
		M116.011,87.994h-10.128c0.317-0.71,0.484-1.481,0.484-2.269c0-3.128-2.545-5.672-5.673-5.672s-5.673,2.544-5.673,5.672
		c0,0.788,0.167,1.559,0.484,2.269H85.377c-0.626,0-1.135,0.507-1.135,1.134v8.51c0,0.627,0.509,1.135,1.135,1.135h30.633
		c0.627,0,1.135-0.508,1.135-1.135v-8.51C117.146,88.501,116.638,87.994,116.011,87.994z"/>
	<circle fill="#0E76B7" cx="100.694" cy="85.488" r="2.198"/>
</g>
</svg>
